# Blender 3.3.1
# www.blender.org
mtllib untitled.mtl
o Cylinder
v 0.020170 -0.203976 -1.115871
v 0.020170 0.211645 -1.115871
v 0.238043 -0.203976 -1.094412
v 0.238043 0.211645 -1.094412
v 0.447543 -0.203976 -1.030861
v 0.447543 0.211645 -1.030861
v 0.640619 -0.203976 -0.927660
v 0.640619 0.211645 -0.927660
v 0.809852 -0.203976 -0.788774
v 0.809852 0.211645 -0.788774
v 0.948738 -0.203976 -0.619541
v 0.948738 0.211645 -0.619541
v 1.051939 -0.203976 -0.426465
v 1.051939 0.211645 -0.426465
v 1.115491 -0.203976 -0.216965
v 1.115491 0.211645 -0.216965
v 1.136949 -0.203976 0.000908
v 1.136949 0.211645 0.000908
v 1.115491 -0.203976 0.218781
v 1.115491 0.211645 0.218781
v 1.051939 -0.203976 0.428281
v 1.051939 0.211645 0.428281
v 0.948738 -0.203976 0.621357
v 0.948738 0.211645 0.621357
v 0.809852 -0.203976 0.790590
v 0.809852 0.211645 0.790590
v 0.640619 -0.203976 0.929476
v 0.640619 0.211645 0.929476
v 0.447543 -0.203976 1.032677
v 0.447543 0.211645 1.032677
v 0.238043 -0.203976 1.096228
v 0.238043 0.211645 1.096228
v 0.020170 -0.203976 1.117687
v 0.020170 0.211645 1.117687
v -0.197703 -0.203976 1.096228
v -0.197703 0.211645 1.096228
v -0.407203 -0.203976 1.032677
v -0.407203 0.211645 1.032677
v -0.600279 -0.203976 0.929476
v -0.600279 0.211645 0.929476
v -0.769512 -0.203976 0.790590
v -0.769512 0.211645 0.790590
v -0.908398 -0.203976 0.621357
v -0.908398 0.211645 0.621357
v -1.011599 -0.203976 0.428281
v -1.011599 0.211645 0.428281
v -1.075150 -0.203976 0.218781
v -1.075150 0.211645 0.218781
v -1.096609 -0.203976 0.000908
v -1.096609 0.211645 0.000908
v -1.075150 -0.203976 -0.216965
v -1.075150 0.211645 -0.216965
v -1.011599 -0.203976 -0.426465
v -1.011599 0.211645 -0.426465
v -0.908398 -0.203976 -0.619541
v -0.908398 0.211645 -0.619541
v -0.769512 -0.203976 -0.788774
v -0.769512 0.211645 -0.788774
v -0.600279 -0.203976 -0.927660
v -0.600279 0.211645 -0.927660
v -0.407203 -0.203976 -1.030861
v -0.407203 0.211645 -1.030861
v -0.197703 -0.203976 -1.094412
v -0.197703 0.211645 -1.094412
vn 0.0980 -0.0000 -0.9952
vn 0.2903 -0.0000 -0.9569
vn 0.4714 -0.0000 -0.8819
vn 0.6344 -0.0000 -0.7730
vn 0.7730 -0.0000 -0.6344
vn 0.8819 -0.0000 -0.4714
vn 0.9569 -0.0000 -0.2903
vn 0.9952 -0.0000 -0.0980
vn 0.9952 -0.0000 0.0980
vn 0.9569 -0.0000 0.2903
vn 0.8819 -0.0000 0.4714
vn 0.7730 -0.0000 0.6344
vn 0.6344 -0.0000 0.7730
vn 0.4714 -0.0000 0.8819
vn 0.2903 -0.0000 0.9569
vn 0.0980 -0.0000 0.9952
vn -0.0980 -0.0000 0.9952
vn -0.2903 -0.0000 0.9569
vn -0.4714 -0.0000 0.8819
vn -0.6344 -0.0000 0.7730
vn -0.7730 -0.0000 0.6344
vn -0.8819 -0.0000 0.4714
vn -0.9569 -0.0000 0.2903
vn -0.9952 -0.0000 0.0980
vn -0.9952 -0.0000 -0.0980
vn -0.9569 -0.0000 -0.2903
vn -0.8819 -0.0000 -0.4714
vn -0.7730 -0.0000 -0.6344
vn -0.6344 -0.0000 -0.7730
vn -0.4714 -0.0000 -0.8819
vn -0.0000 1.0000 -0.0000
vn -0.2903 -0.0000 -0.9569
vn -0.0980 -0.0000 -0.9952
vn -0.0000 -1.0000 -0.0000
vt 0.539334 0.937339
vt 0.460666 0.937339
vt 0.871019 0.256020
vt 0.539334 0.976673
vt 0.498408 1.001840
vt 0.460666 0.976673
vt 0.536876 0.937339
vt 0.872194 0.255904
vt 0.536876 0.976673
vt 0.596622 0.992167
vt 0.534417 0.937339
vt 0.873323 0.255562
vt 0.534417 0.976673
vt 0.691063 0.963519
vt 0.531959 0.937339
vt 0.874364 0.255006
vt 0.531959 0.976673
vt 0.778100 0.916997
vt 0.529501 0.937339
vt 0.875276 0.254257
vt 0.529501 0.976673
vt 0.854388 0.854388
vt 0.527042 0.937339
vt 0.876025 0.253345
vt 0.527042 0.976673
vt 0.916996 0.778100
vt 0.524584 0.937339
vt 0.876581 0.252304
vt 0.524584 0.976673
vt 0.963519 0.691063
vt 0.522125 0.937339
vt 0.876924 0.251174
vt 0.522125 0.976673
vt 0.992167 0.596622
vt 0.519667 0.937339
vt 0.877039 0.250000
vt 0.519667 0.976673
vt 1.001840 0.498408
vt 0.517209 0.937339
vt 0.876924 0.248826
vt 0.517209 0.976673
vt 0.992167 0.400193
vt 0.514750 0.937339
vt 0.876581 0.247696
vt 0.514750 0.976673
vt 0.963519 0.305752
vt 0.512292 0.937339
vt 0.876025 0.246655
vt 0.512292 0.976673
vt 0.916996 0.218716
vt 0.509834 0.937339
vt 0.875276 0.245743
vt 0.509834 0.976673
vt 0.854388 0.142427
vt 0.507375 0.937339
vt 0.874364 0.244994
vt 0.507375 0.976673
vt 0.778100 0.079819
vt 0.504917 0.937339
vt 0.873323 0.244438
vt 0.504917 0.976673
vt 0.691063 0.033297
vt 0.502458 0.937339
vt 0.872194 0.244095
vt 0.502458 0.976673
vt 0.596622 0.004648
vt 0.500000 0.937339
vt 0.871019 0.243980
vt 0.500000 0.976673
vt 0.498408 -0.005025
vt 0.497542 0.937339
vt 0.869845 0.244095
vt 0.497542 0.976673
vt 0.400193 0.004648
vt 0.495083 0.937339
vt 0.868715 0.244438
vt 0.495083 0.976673
vt 0.305752 0.033297
vt 0.492625 0.937339
vt 0.867674 0.244994
vt 0.492625 0.976673
vt 0.218716 0.079819
vt 0.490166 0.937339
vt 0.866762 0.245743
vt 0.490166 0.976673
vt 0.142427 0.142427
vt 0.487708 0.937339
vt 0.866014 0.246655
vt 0.487708 0.976673
vt 0.079819 0.218716
vt 0.485250 0.937339
vt 0.865457 0.247696
vt 0.485250 0.976673
vt 0.033297 0.305752
vt 0.482791 0.937339
vt 0.865115 0.248826
vt 0.482791 0.976673
vt 0.004648 0.400193
vt 0.480333 0.937339
vt 0.864999 0.250000
vt 0.480333 0.976673
vt -0.005025 0.498408
vt 0.477875 0.937339
vt 0.865115 0.251174
vt 0.477875 0.976673
vt 0.004648 0.596622
vt 0.475416 0.937339
vt 0.865457 0.252304
vt 0.475416 0.976673
vt 0.033297 0.691063
vt 0.472958 0.937339
vt 0.866014 0.253345
vt 0.472958 0.976673
vt 0.079819 0.778100
vt 0.470499 0.937339
vt 0.866762 0.254257
vt 0.470499 0.976673
vt 0.142427 0.854388
vt 0.468041 0.937339
vt 0.867674 0.255006
vt 0.468041 0.976673
vt 0.218716 0.916997
vt 0.465583 0.937339
vt 0.868715 0.255562
vt 0.305752 0.963519
vt 0.465583 0.976673
vt 0.463124 0.937339
vt 0.869845 0.255904
vt 0.400193 0.992167
vt 0.463124 0.976673
s 0
usemtl Pls
f 1/1/1 2/4/1 4/9/1 3/7/1
f 3/7/2 4/9/2 6/13/2 5/11/2
f 5/11/3 6/13/3 8/17/3 7/15/3
f 7/15/4 8/17/4 10/21/4 9/19/4
f 9/19/5 10/21/5 12/25/5 11/23/5
f 11/23/6 12/25/6 14/29/6 13/27/6
f 13/27/7 14/29/7 16/33/7 15/31/7
f 15/31/8 16/33/8 18/37/8 17/35/8
f 17/35/9 18/37/9 20/41/9 19/39/9
f 19/39/10 20/41/10 22/45/10 21/43/10
f 21/43/11 22/45/11 24/49/11 23/47/11
f 23/47/12 24/49/12 26/53/12 25/51/12
f 25/51/13 26/53/13 28/57/13 27/55/13
f 27/55/14 28/57/14 30/61/14 29/59/14
f 29/59/15 30/61/15 32/65/15 31/63/15
f 31/63/16 32/65/16 34/69/16 33/67/16
f 33/67/17 34/69/17 36/73/17 35/71/17
f 35/71/18 36/73/18 38/77/18 37/75/18
f 37/75/19 38/77/19 40/81/19 39/79/19
f 39/79/20 40/81/20 42/85/20 41/83/20
f 41/83/21 42/85/21 44/89/21 43/87/21
f 43/87/22 44/89/22 46/93/22 45/91/22
f 45/91/23 46/93/23 48/97/23 47/95/23
f 47/95/24 48/97/24 50/101/24 49/99/24
f 49/99/25 50/101/25 52/105/25 51/103/25
f 51/103/26 52/105/26 54/109/26 53/107/26
f 53/107/27 54/109/27 56/113/27 55/111/27
f 55/111/28 56/113/28 58/117/28 57/115/28
f 57/115/29 58/117/29 60/121/29 59/119/29
f 59/119/30 60/121/30 62/126/30 61/123/30
f 4/10/31 2/5/31 64/129/31 62/125/31 60/122/31 58/118/31 56/114/31 54/110/31 52/106/31 50/102/31 48/98/31 46/94/31 44/90/31 42/86/31 40/82/31 38/78/31 36/74/31 34/70/31 32/66/31 30/62/31 28/58/31 26/54/31 24/50/31 22/46/31 20/42/31 18/38/31 16/34/31 14/30/31 12/26/31 10/22/31 8/18/31 6/14/31
f 61/123/32 62/126/32 64/130/32 63/127/32
f 63/127/33 64/130/33 2/6/33 1/2/33
f 1/3/34 3/8/34 5/12/34 7/16/34 9/20/34 11/24/34 13/28/34 15/32/34 17/36/34 19/40/34 21/44/34 23/48/34 25/52/34 27/56/34 29/60/34 31/64/34 33/68/34 35/72/34 37/76/34 39/80/34 41/84/34 43/88/34 45/92/34 47/96/34 49/100/34 51/104/34 53/108/34 55/112/34 57/116/34 59/120/34 61/124/34 63/128/34
